<?xml version="1.0" encoding="UTF-8"?>
<svg version="1.1" xmlns="http://www.w3.org/2000/svg" width="188" height="173">
<path d="M0 0 C62.04 0 124.08 0 188 0 C188 57.09 188 114.18 188 173 C125.96 173 63.92 173 0 173 C0 115.91 0 58.82 0 0 Z " fill="#4B5459" transform="translate(0,0)"/>
<path d="M0 0 C0.66 0 1.32 0 2 0 C2.66 1.32 3.32 2.64 4 4 C4.33 2.68 4.66 1.36 5 0 C5.66 0 6.32 0 7 0 C7 0.99 7 1.98 7 3 C8.27875 3.185625 9.5575 3.37125 10.875 3.5625 C11.59429687 3.66691406 12.31359375 3.77132812 13.0546875 3.87890625 C15.08140667 4.1684297 15.08140667 4.1684297 17 3 C18.54023996 2.93049459 20.08334988 2.91547643 21.625 2.9375 C22.85089844 2.95103516 22.85089844 2.95103516 24.1015625 2.96484375 C24.72804687 2.97644531 25.35453125 2.98804687 26 3 C26 3.99 26 4.98 26 6 C25.34 6.33 24.68 6.66 24 7 C24.99 7.66 25.98 8.32 27 9 C26.113125 8.814375 25.22625 8.62875 24.3125 8.4375 C21.14821189 8.01957516 19.05160358 8.19222258 16 9 C16.33 8.01 16.66 7.02 17 6 C15.35 6 13.7 6 12 6 C12 6.99 12 7.98 12 9 C10.68 9 9.36 9 8 9 C8 9.66 8 10.32 8 11 C8.66 11 9.32 11 10 11 C10.99 13.31 11.98 15.62 13 18 C14.65 18 16.3 18 18 18 C18 18.66 18 19.32 18 20 C19.32 20 20.64 20 22 20 C22 19.34 22 18.68 22 18 C23.98 18 25.96 18 28 18 C28 19.98 28 21.96 28 24 C26.68 24 25.36 24 24 24 C24 24.99 24 25.98 24 27 C23.34 27 22.68 27 22 27 C21.505 24.525 21.505 24.525 21 22 C20.34 22 19.68 22 19 22 C18.505 23.485 18.505 23.485 18 25 C14.04 24.67 10.08 24.34 6 24 C6 23.01 6 22.02 6 21 C4.68 21.33 3.36 21.66 2 22 C1.87625 22.78375 1.7525 23.5675 1.625 24.375 C1 27 1 27 -1 29 C-0.6814823 31.10820797 -0.6814823 31.10820797 0 33 C0.66 33 1.32 33 2 33 C2 34.98 2 36.96 2 39 C-5.59 39.33 -13.18 39.66 -21 40 C-21 38.02 -21 36.04 -21 34 C-23.51083114 35.25541557 -23.87125446 36.50063488 -25 39 C-25.32374517 33.49633208 -25.53286034 29.56327794 -22 25 C-22.474375 24.5875 -22.94875 24.175 -23.4375 23.75 C-25.16266518 21.817815 -25.56584875 20.51807725 -26 18 C-25.34 18 -24.68 18 -24 18 C-24 18.99 -24 19.98 -24 21 C-23.34 21 -22.68 21 -22 21 C-22 20.01 -22 19.02 -22 18 C-19.36 18 -16.72 18 -14 18 C-14 17.01 -14 16.02 -14 15 C-13.34 15 -12.68 15 -12 15 C-11.67 15.99 -11.34 16.98 -11 18 C-9.68 17.67 -8.36 17.34 -7 17 C-7.33 15.68 -7.66 14.36 -8 13 C-7.34 13 -6.68 13 -6 13 C-6 12.34 -6 11.68 -6 11 C-5.01 10.67 -4.02 10.34 -3 10 C-3.99 9.34 -4.98 8.68 -6 8 C-5.67 6.35 -5.34 4.7 -5 3 C-3.68 3 -2.36 3 -1 3 C-1 6.3 -1 9.6 -1 13 C-2.32 13.33 -3.64 13.66 -5 14 C-4.67 14.99 -4.34 15.98 -4 17 C-1.90280128 18.02281518 -1.90280128 18.02281518 0.5625 18.6875 C1.38878906 18.93886719 2.21507813 19.19023438 3.06640625 19.44921875 C3.70449219 19.63097656 4.34257813 19.81273438 5 20 C5.12375 19.360625 5.2475 18.72125 5.375 18.0625 C5.684375 17.0415625 5.684375 17.0415625 6 16 C6.66 15.67 7.32 15.34 8 15 C7.01 14.67 6.02 14.34 5 14 C4.62243192 12.67851173 4.2981424 11.34164079 4 10 C3.505 9.195625 3.01 8.39125 2.5 7.5625 C0.98228219 4.96973207 0.42152861 2.95070024 0 0 Z " fill="#565F62" transform="translate(87,87)"/>
<path d="M0 0 C0.99 0 1.98 0 3 0 C5 3 5 3 4.625 5.1875 C4.41875 5.785625 4.2125 6.38375 4 7 C2.68 7 1.36 7 0 7 C-0.433125 8.299375 -0.433125 8.299375 -0.875 9.625 C-1.56677961 11.70033883 -2.2894012 13.76606199 -3.0625 15.8125 C-4.26046933 19.88559574 -4.61570294 23.7727323 -5 28 C-9.62 28 -14.24 28 -19 28 C-19.26785714 18.89285714 -19.26785714 18.89285714 -17 15 C-16.67 16.32 -16.34 17.64 -16 19 C-16 17.35 -16 15.7 -16 14 C-18.97 13.505 -18.97 13.505 -22 13 C-21.67 12.01 -21.34 11.02 -21 10 C-20.34 10 -19.68 10 -19 10 C-19 9.34 -19 8.68 -19 8 C-20.32 7.34 -21.64 6.68 -23 6 C-22.67 5.01 -22.34 4.02 -22 3 C-19 4 -19 4 -17 5 C-17 4.01 -17 3.02 -17 2 C-13.7 2 -10.4 2 -7 2 C-7.66 3.98 -8.32 5.96 -9 8 C-7.35 7.67 -5.7 7.34 -4 7 C-4 5.68 -4 4.36 -4 3 C-3.01 3 -2.02 3 -1 3 C-0.67 2.01 -0.34 1.02 0 0 Z " fill="#868987" transform="translate(105,45)"/>
<path d="M0 0 C0.66 0.33 1.32 0.66 2 1 C2 15.85 2 30.7 2 46 C-13.84 46.495 -13.84 46.495 -30 47 C-30.33 47.66 -30.66 48.32 -31 49 C-31 47.35 -31 45.7 -31 44 C-25.555 43.505 -25.555 43.505 -20 43 C-23.465 41.515 -23.465 41.515 -27 40 C-26.67 37.36 -26.34 34.72 -26 32 C-25.67 32 -25.34 32 -25 32 C-25 34.31 -25 36.62 -25 39 C-20.38 39 -15.76 39 -11 39 C-11.061875 37.329375 -11.12375 35.65875 -11.1875 33.9375 C-11.20741366 28.79977617 -10.40209169 25.50392192 -8 21 C-6.68 21 -5.36 21 -4 21 C-4 22.32 -4 23.64 -4 25 C-4.99 25 -5.98 25 -7 25 C-6.505 33.91 -6.505 33.91 -6 43 C-4.02 43.33 -2.04 43.66 0 44 C-0.03552979 42.70263916 -0.07105957 41.40527832 -0.10766602 40.06860352 C-0.23764142 35.27364566 -0.36093938 30.47853568 -0.48217773 25.68334961 C-0.53568107 23.60452552 -0.59101658 21.52574778 -0.64819336 19.44702148 C-0.72987259 16.46608477 -0.80504838 13.48504569 -0.87890625 10.50390625 C-0.90594131 9.56849503 -0.93297638 8.6330838 -0.96083069 7.66932678 C-0.98092697 6.80850998 -1.00102325 5.94769318 -1.02172852 5.06079102 C-1.04171402 4.29912125 -1.06169952 3.53745148 -1.08229065 2.75270081 C-1 1 -1 1 0 0 Z " fill="#3A4247" transform="translate(111,34)"/>
<path d="M0 0 C0.66 0 1.32 0 2 0 C2.66 1.32 3.32 2.64 4 4 C4.33 2.68 4.66 1.36 5 0 C5.66 0 6.32 0 7 0 C7 0.99 7 1.98 7 3 C8.918125 3.2784375 8.918125 3.2784375 10.875 3.5625 C11.59429687 3.66691406 12.31359375 3.77132812 13.0546875 3.87890625 C15.08140667 4.1684297 15.08140667 4.1684297 17 3 C18.54023996 2.93049459 20.08334988 2.91547643 21.625 2.9375 C22.85089844 2.95103516 22.85089844 2.95103516 24.1015625 2.96484375 C25.04128906 2.98224609 25.04128906 2.98224609 26 3 C26 3.99 26 4.98 26 6 C25.01 6.495 25.01 6.495 24 7 C24.99 7.66 25.98 8.32 27 9 C26.113125 8.814375 25.22625 8.62875 24.3125 8.4375 C21.14821189 8.01957516 19.05160358 8.19222258 16 9 C16.33 8.01 16.66 7.02 17 6 C15.35 6 13.7 6 12 6 C12 6.99 12 7.98 12 9 C10.68 9 9.36 9 8 9 C8 9.66 8 10.32 8 11 C8.66 11 9.32 11 10 11 C10.99 13.31 11.98 15.62 13 18 C14.65 18 16.3 18 18 18 C18 18.66 18 19.32 18 20 C19.32 20 20.64 20 22 20 C22 19.34 22 18.68 22 18 C23.98 18 25.96 18 28 18 C28 19.98 28 21.96 28 24 C26.68 24 25.36 24 24 24 C24 24.99 24 25.98 24 27 C23.34 27 22.68 27 22 27 C21.67 25.35 21.34 23.7 21 22 C20.34 22 19.68 22 19 22 C18.67 22.99 18.34 23.98 18 25 C14.04 24.67 10.08 24.34 6 24 C6 23.01 6 22.02 6 21 C4.35 21 2.7 21 1 21 C2.32 20.67 3.64 20.34 5 20 C5.12375 19.360625 5.2475 18.72125 5.375 18.0625 C5.58125 17.381875 5.7875 16.70125 6 16 C6.66 15.67 7.32 15.34 8 15 C7.01 14.67 6.02 14.34 5 14 C4.62243192 12.67851173 4.2981424 11.34164079 4 10 C3.505 9.195625 3.01 8.39125 2.5 7.5625 C0.98228219 4.96973207 0.42152861 2.95070024 0 0 Z " fill="#61696D" transform="translate(87,87)"/>
<path d="M0 0 C9.41002278 -0.3690205 9.41002278 -0.3690205 14 2 C13.01 2.33 12.02 2.66 11 3 C11 3.66 11 4.32 11 5 C10.01 5.66 9.02 6.32 8 7 C7.49319956 9.09632445 7.49319956 9.09632445 7.4375 11.4375 C7.24585342 14.96263551 7.0552572 15.9171142 5 19 C5.66 19 6.32 19 7 19 C7 19.66 7 20.32 7 21 C5.02 21 3.04 21 1 21 C1 19.35 1 17.7 1 16 C0.01 16.33 -0.98 16.66 -2 17 C-1.34 17.33 -0.68 17.66 0 18 C-0.33 18.99 -0.66 19.98 -1 21 C-1.99 20.67 -2.98 20.34 -4 20 C-3.67 19.67 -3.34 19.34 -3 19 C-4.65 19 -6.3 19 -8 19 C-7.01 19.66 -6.02 20.32 -5 21 C-7.97 21 -10.94 21 -14 21 C-14.625 18.125 -14.625 18.125 -15 15 C-14.34 14.34 -13.68 13.68 -13 13 C-13 13.66 -13 14.32 -13 15 C-12.34 15 -11.68 15 -11 15 C-10.34 13.68 -9.68 12.36 -9 11 C-8.484375 11.226875 -7.96875 11.45375 -7.4375 11.6875 C-3.71192968 12.16513722 -1.35483696 10.61290239 2 9 C2 8.01 2 7.02 2 6 C1.34 6 0.68 6 0 6 C0 4.02 0 2.04 0 0 Z " fill="#51565C" transform="translate(117,105)"/>
<path d="M0 0 C0.99 0 1.98 0 3 0 C5 3 5 3 4.625 5.1875 C4.41875 5.785625 4.2125 6.38375 4 7 C2.68 7 1.36 7 0 7 C-0.33 7.99 -0.66 8.98 -1 10 C-2.65 10.33 -4.3 10.66 -6 11 C-5.34 11.66 -4.68 12.32 -4 13 C-9.94 13 -15.88 13 -22 13 C-21.67 12.01 -21.34 11.02 -21 10 C-20.34 10 -19.68 10 -19 10 C-19 9.34 -19 8.68 -19 8 C-20.32 7.34 -21.64 6.68 -23 6 C-22.67 5.01 -22.34 4.02 -22 3 C-19 4 -19 4 -17 5 C-17 4.01 -17 3.02 -17 2 C-13.7 2 -10.4 2 -7 2 C-7.66 3.98 -8.32 5.96 -9 8 C-7.35 7.67 -5.7 7.34 -4 7 C-4 5.68 -4 4.36 -4 3 C-3.01 3 -2.02 3 -1 3 C-0.67 2.01 -0.34 1.02 0 0 Z " fill="#A98636" transform="translate(105,45)"/>
<path d="M0 0 C1.32 0 2.64 0 4 0 C4 1.32 4 2.64 4 4 C3.01 4 2.02 4 1 4 C1 9.61 1 15.22 1 21 C-1.5575 21.04125 -4.115 21.0825 -6.75 21.125 C-7.54889648 21.14320801 -8.34779297 21.16141602 -9.17089844 21.18017578 C-12.95261758 21.20970558 -15.80684118 21.13437458 -19 19 C-18.67 16.36 -18.34 13.72 -18 11 C-17.67 11 -17.34 11 -17 11 C-17 13.31 -17 15.62 -17 18 C-12.38 18 -7.76 18 -3 18 C-3.061875 16.329375 -3.12375 14.65875 -3.1875 12.9375 C-3.20741366 7.79977617 -2.40209169 4.50392192 0 0 Z " fill="#2C2B29" transform="translate(103,55)"/>
<path d="M0 0 C2.125 1.875 2.125 1.875 4 4 C4 6 4 6 2.5 7.625 C2.005 8.07875 1.51 8.5325 1 9 C1.969375 8.979375 2.93875 8.95875 3.9375 8.9375 C7 9 7 9 8 10 C8.04063832 11.66617115 8.042721 13.33388095 8 15 C7.01 15 6.02 15 5 15 C4.01 17.475 4.01 17.475 3 20 C1 16.25 1 16.25 1 14 C-0.65 14.33 -2.3 14.66 -4 15 C-4 14.34 -4 13.68 -4 13 C-3.01 12.34 -2.02 11.68 -1 11 C-1 10.01 -1 9.02 -1 8 C-2.65 7.67 -4.3 7.34 -6 7 C-6 5.35 -6 3.7 -6 2 C-2.25 0 -2.25 0 0 0 Z " fill="#48483F" transform="translate(82,49)"/>
<path d="M0 0 C0.763125 0.185625 1.52625 0.37125 2.3125 0.5625 C5.08967375 1.22819173 5.08967375 1.22819173 8 0 C8.33 1.32 8.66 2.64 9 4 C9.66 4 10.32 4 11 4 C11.33 3.34 11.66 2.68 12 2 C12 2.66 12 3.32 12 4 C12.66 4.33 13.32 4.66 14 5 C13.34 5 12.68 5 12 5 C12 6.32 12 7.64 12 9 C12.66 9.33 13.32 9.66 14 10 C13.01 10 12.02 10 11 10 C11 8.35 11 6.7 11 5 C10.01 5.33 9.02 5.66 8 6 C8.66 6.33 9.32 6.66 10 7 C9.67 7.99 9.34 8.98 9 10 C8.01 9.67 7.02 9.34 6 9 C6.33 8.67 6.66 8.34 7 8 C5.35 8 3.7 8 2 8 C2.99 8.66 3.98 9.32 5 10 C2.03 10 -0.94 10 -4 10 C-4.625 7.125 -4.625 7.125 -5 4 C-4.34 3.34 -3.68 2.68 -3 2 C-3 2.66 -3 3.32 -3 4 C-2.34 4 -1.68 4 -1 4 C-0.67 2.68 -0.34 1.36 0 0 Z " fill="#5A6065" transform="translate(107,116)"/>
<path d="M0 0 C1.32 0 2.64 0 4 0 C4 3.3 4 6.6 4 10 C2.68 10.33 1.36 10.66 0 11 C0.33 11.99 0.66 12.98 1 14 C1.99 14.33 2.98 14.66 4 15 C4 17.64 4 20.28 4 23 C2.35 23.33 0.7 23.66 -1 24 C-0.01 23.34 0.98 22.68 2 22 C1.01 21.34 0.02 20.68 -1 20 C-1.4765625 18.125 -1.4765625 18.125 -1.625 16 C-1.86279979 12.88561456 -1.86279979 12.88561456 -3 10 C-2.34 10 -1.68 10 -1 10 C-1 9.34 -1 8.68 -1 8 C-0.01 7.67 0.98 7.34 2 7 C1.01 6.34 0.02 5.68 -1 5 C-0.67 3.35 -0.34 1.7 0 0 Z " fill="#929A9F" transform="translate(82,90)"/>
<path d="M0 0 C0.66 0 1.32 0 2 0 C2.33 0.99 2.66 1.98 3 3 C3.99 3 4.98 3 6 3 C7.125 6.75 7.125 6.75 6 9 C2.7 9 -0.6 9 -4 9 C-4.495 6.525 -4.495 6.525 -5 4 C-3.35 3.67 -1.7 3.34 0 3 C0 2.01 0 1.02 0 0 Z " fill="#969EA6" transform="translate(73,102)"/>
<path d="M0 0 C0.66 0 1.32 0 2 0 C2 0.66 2 1.32 2 2 C3.32 2 4.64 2 6 2 C6 1.34 6 0.68 6 0 C7.98 0 9.96 0 12 0 C12 1.98 12 3.96 12 6 C10.68 6 9.36 6 8 6 C8 6.99 8 7.98 8 9 C7.34 9 6.68 9 6 9 C5.505 6.525 5.505 6.525 5 4 C4.34 4 3.68 4 3 4 C2.67 4.99 2.34 5.98 2 7 C1.34 6.34 0.68 5.68 0 5 C0.33 4.34 0.66 3.68 1 3 C0.01 2.67 -0.98 2.34 -2 2 C-1.34 1.34 -0.68 0.68 0 0 Z " fill="#4E5766" transform="translate(103,105)"/>
<path d="M0 0 C2.01822917 0.29296875 4.03645833 0.5859375 6.0546875 0.87890625 C8.08140667 1.1684297 8.08140667 1.1684297 10 0 C11.54023996 -0.06950541 13.08334988 -0.08452357 14.625 -0.0625 C15.85089844 -0.04896484 15.85089844 -0.04896484 17.1015625 -0.03515625 C18.04128906 -0.01775391 18.04128906 -0.01775391 19 0 C19 0.99 19 1.98 19 3 C18.01 3.495 18.01 3.495 17 4 C17.99 4.66 18.98 5.32 20 6 C19.113125 5.814375 18.22625 5.62875 17.3125 5.4375 C14.14821189 5.01957516 12.05160358 5.19222258 9 6 C9.33 5.01 9.66 4.02 10 3 C8.35 3 6.7 3 5 3 C5 3.99 5 4.98 5 6 C3.68 5.67 2.36 5.34 1 5 C1.66 5 2.32 5 3 5 C3 4.34 3 3.68 3 3 C2.34 2.67 1.68 2.34 1 2 C0.67 1.34 0.34 0.68 0 0 Z " fill="#BAC2C8" transform="translate(94,90)"/>
<path d="M0 0 C2.64 0 5.28 0 8 0 C7.67 0.66 7.34 1.32 7 2 C7.99 1.67 8.98 1.34 10 1 C11.33106622 0.65772583 12.66400079 0.32248257 14 0 C14 1.98 14 3.96 14 6 C9.38 6 4.76 6 0 6 C0 4 0 2 0 0 Z " fill="#C4C8CC" transform="translate(75,120)"/>
<path d="M0 0 C3.3 0 6.6 0 10 0 C9.34 1.98 8.68 3.96 8 6 C6.41632253 5.85795259 4.83306682 5.71119847 3.25 5.5625 C2.36828125 5.48128906 1.4865625 5.40007813 0.578125 5.31640625 C-1.69350452 5.03761535 -3.79851823 4.61209423 -6 4 C-5.67 3.01 -5.34 2.02 -5 1 C-2 2 -2 2 0 3 C0 2.01 0 1.02 0 0 Z " fill="#839173" transform="translate(88,47)"/>
<path d="M0 0 C0.66 0.33 1.32 0.66 2 1 C2.05406122 2.93719378 2.09282025 4.87481921 2.125 6.8125 C2.14820312 7.89144531 2.17140625 8.97039063 2.1953125 10.08203125 C2 13 2 13 0 16 C-1.32 16 -2.64 16 -4 16 C-4.495 17.98 -4.495 17.98 -5 20 C-5 17.69 -5 15.38 -5 13 C-4.01 13 -3.02 13 -2 13 C-2 11.68 -2 10.36 -2 9 C-2.99 8.67 -3.98 8.34 -5 8 C-4.67 7.34 -4.34 6.68 -4 6 C-3.34 5.855625 -2.68 5.71125 -2 5.5625 C-1.01 5.2840625 -1.01 5.2840625 0 5 C0.33 4.01 0.66 3.02 1 2 C0.34 1.67 -0.32 1.34 -1 1 C-0.67 0.67 -0.34 0.34 0 0 Z " fill="#4D4F47" transform="translate(109,46)"/>
<path d="M0 0 C0.66 0.33 1.32 0.66 2 1 C2 15.85 2 30.7 2 46 C1.67 46 1.34 46 1 46 C1 35.11 1 24.22 1 13 C0.34 12.67 -0.32 12.34 -1 12 C-1.02687279 10.18757948 -1.04633715 8.37504767 -1.0625 6.5625 C-1.07410156 5.55316406 -1.08570312 4.54382812 -1.09765625 3.50390625 C-1 1 -1 1 0 0 Z " fill="#40494C" transform="translate(111,34)"/>
<path d="M0 0 C9.41002278 -0.3690205 9.41002278 -0.3690205 14 2 C13.01 2.33 12.02 2.66 11 3 C11 3.66 11 4.32 11 5 C7.25804529 5.66523639 3.79563172 6 0 6 C0 4.02 0 2.04 0 0 Z " fill="#9FA4A7" transform="translate(117,105)"/>
<path d="M0 0 C-0.33 0.66 -0.66 1.32 -1 2 C-2.32 2 -3.64 2 -5 2 C-4.79375 2.78375 -4.5875 3.5675 -4.375 4.375 C-4.25125 5.24125 -4.1275 6.1075 -4 7 C-6 9 -6 9 -8.625 9.125 C-9.40875 9.08375 -10.1925 9.0425 -11 9 C-11 6.69 -11 4.38 -11 2 C-7.17010894 0.19769832 -4.21878192 -0.19622241 0 0 Z " fill="#D0B782" transform="translate(96,36)"/>
<path d="M0 0 C0.90105469 0.00902344 1.80210938 0.01804688 2.73046875 0.02734375 C3.41753906 0.03894531 4.10460937 0.05054688 4.8125 0.0625 C4.8125 0.7225 4.8125 1.3825 4.8125 2.0625 C4.1525 2.0625 3.4925 2.0625 2.8125 2.0625 C2.8125 4.0425 2.8125 6.0225 2.8125 8.0625 C1.8225 7.4025 0.8325 6.7425 -0.1875 6.0625 C-2.1771995 5.67236284 -4.17769869 5.33047351 -6.1875 5.0625 C-6.1875 4.0725 -6.1875 3.0825 -6.1875 2.0625 C-6.8475 1.7325 -7.5075 1.4025 -8.1875 1.0625 C-5.17259443 0.05753148 -3.14568308 -0.04085303 0 0 Z " fill="#3F3734" transform="translate(97.1875,41.9375)"/>
<path d="M0 0 C2.31 0.33 4.62 0.66 7 1 C7 1.66 7 2.32 7 3 C8.65 3.33 10.3 3.66 12 4 C11.01 5.485 11.01 5.485 10 7 C7.6171875 7.29296875 7.6171875 7.29296875 4.875 7.1875 C3.96492188 7.16042969 3.05484375 7.13335937 2.1171875 7.10546875 C1.41851562 7.07066406 0.71984375 7.03585938 0 7 C0.33 6.01 0.66 5.02 1 4 C1.66 4 2.32 4 3 4 C3 3.34 3 2.68 3 2 C2.01 1.67 1.02 1.34 0 1 C0 0.67 0 0.34 0 0 Z " fill="#B49141" transform="translate(83,51)"/>
<path d="M0 0 C0.33 0 0.66 0 1 0 C1 2.97 1 5.94 1 9 C-4.60939516 11.02893016 -9.13987255 11.2449627 -15 10 C-15.33 9.67 -15.66 9.34 -16 9 C-15.82364548 6.30917128 -15.38164079 3.67148554 -15 1 C-14.67 1 -14.34 1 -14 1 C-14 3.31 -14 5.62 -14 8 C-9.38 8 -4.76 8 0 8 C0 5.36 0 2.72 0 0 Z " fill="#303430" transform="translate(100,65)"/>
<path d="M0 0 C0.33 0.99 0.66 1.98 1 3 C2.65614657 3.38218767 4.32457024 3.71395102 6 4 C6.33 3.67 6.66 3.34 7 3 C8.32 3 9.64 3 11 3 C11 4.98 11 6.96 11 9 C8.69 9.33 6.38 9.66 4 10 C4 8.02 4 6.04 4 4 C1.5 5 1.5 5 0 9 C0 6.03 0 3.06 0 0 Z " fill="#BDC4C5" transform="translate(62,117)"/>
<path d="M0 0 C0.103125 0.639375 0.20625 1.27875 0.3125 1.9375 C0.6528125 2.9584375 0.6528125 2.9584375 1 4 C1.99 4.33 2.98 4.66 4 5 C4 5.66 4 6.32 4 7 C3.01 7.495 3.01 7.495 2 8 C2.99 8.66 3.98 9.32 5 10 C2.03 10 -0.94 10 -4 10 C-4.625 7.125 -4.625 7.125 -5 4 C-4.34 3.34 -3.68 2.68 -3 2 C-3 2.66 -3 3.32 -3 4 C-2.34 4 -1.68 4 -1 4 C-0.67 2.68 -0.34 1.36 0 0 Z " fill="#AAB0B3" transform="translate(107,116)"/>
<path d="M0 0 C3.53790403 3.69172595 3.59115883 7.09390595 4 12 C4.99 12 5.98 12 7 12 C7.33 11.34 7.66 10.68 8 10 C8.33 10.99 8.66 11.98 9 13 C5.7 13 2.4 13 -1 13 C-1.13392857 3.89285714 -1.13392857 3.89285714 0 0 Z " fill="#888B87" transform="translate(87,60)"/>
<path d="M0 0 C-0.66 1.32 -1.32 2.64 -2 4 C-2.66 3.67 -3.32 3.34 -4 3 C-4.33 3.66 -4.66 4.32 -5 5 C-5.99 5 -6.98 5 -8 5 C-8 6.32 -8 7.64 -8 9 C-9.65 9.33 -11.3 9.66 -13 10 C-12.67 8.68 -12.34 7.36 -12 6 C-11.34 6 -10.68 6 -10 6 C-9.67 4.35 -9.34 2.7 -9 1 C-5.92677456 0.08941469 -3.19902639 -0.08886184 0 0 Z " fill="#52544A" transform="translate(109,43)"/>
<path d="M0 0 C1.65 0 3.3 0 5 0 C5 2.97 5 5.94 5 9 C3.35 8.67 1.7 8.34 0 8 C0 5.36 0 2.72 0 0 Z " fill="#8E9396" transform="translate(90,135)"/>
<path d="M0 0 C0.66 0 1.32 0 2 0 C2.33 0.99 2.66 1.98 3 3 C3.99 3.33 4.98 3.66 6 4 C5.67 4.33 5.34 4.66 5 5 C5.66 5.33 6.32 5.66 7 6 C6.67 6.99 6.34 7.98 6 9 C4.02 9 2.04 9 0 9 C0 6.03 0 3.06 0 0 Z " fill="#AAB0B2" transform="translate(97,102)"/>
<path d="M0 0 C0 2.97 0 5.94 0 9 C-1.32 9 -2.64 9 -4 9 C-4 8.01 -4 7.02 -4 6 C-5.65 6 -7.3 6 -9 6 C-7.68 5.67 -6.36 5.34 -5 5 C-4.896875 4.360625 -4.79375 3.72125 -4.6875 3.0625 C-4.460625 2.381875 -4.23375 1.70125 -4 1 C-1 0 -1 0 0 0 Z " fill="#60636B" transform="translate(97,102)"/>
<path d="M0 0 C0.99 0 1.98 0 3 0 C3 0.99 3 1.98 3 3 C3.99 3.33 4.98 3.66 6 4 C6 4.99 6 5.98 6 7 C3.36 7 0.72 7 -2 7 C-2.33 5.68 -2.66 4.36 -3 3 C-1.68 2.67 -0.36 2.34 1 2 C0.67 1.34 0.34 0.68 0 0 Z " fill="#9B844B" transform="translate(94,35)"/>
<path d="M0 0 C-0.25 2.875 -0.25 2.875 -1 6 C-3.0625 7.375 -3.0625 7.375 -5 8 C-5 8.66 -5 9.32 -5 10 C-5.99 10 -6.98 10 -8 10 C-7.67 9.01 -7.34 8.02 -7 7 C-6.01 7 -5.02 7 -4 7 C-4.33 6.34 -4.66 5.68 -5 5 C-7.02463255 4.34786708 -7.02463255 4.34786708 -9 4 C-5.83923989 0.83923989 -4.57252889 0 0 0 Z " fill="#5A4D38" transform="translate(103,55)"/>
<path d="M0 0 C1.32 0 2.64 0 4 0 C4 2.64 4 5.28 4 8 C2.35 8.33 0.7 8.66 -1 9 C-0.01 8.67 0.98 8.34 2 8 C2 7.34 2 6.68 2 6 C1.01 6 0.02 6 -1 6 C-1.042721 4.33388095 -1.04063832 2.66617115 -1 1 C-0.67 0.67 -0.34 0.34 0 0 Z " fill="#B5BABF" transform="translate(98,135)"/>
<path d="M0 0 C0.33 0 0.66 0 1 0 C1 4.29 1 8.58 1 13 C-1.97 13 -4.94 13 -8 13 C-7.67 12.34 -7.34 11.68 -7 11 C-5.02 11 -3.04 11 -1 11 C-1.01160156 10.37351562 -1.02320312 9.74703125 -1.03515625 9.1015625 C-1.04417969 8.28429687 -1.05320312 7.46703125 -1.0625 6.625 C-1.07410156 5.81289062 -1.08570312 5.00078125 -1.09765625 4.1640625 C-1 2 -1 2 0 0 Z " fill="#181918" transform="translate(102,63)"/>
<path d="M0 0 C0.99 0 1.98 0 3 0 C5 3 5 3 4.625 5.1875 C4.41875 5.785625 4.2125 6.38375 4 7 C2.68 7 1.36 7 0 7 C-0.33 7.99 -0.66 8.98 -1 10 C-1.33 9.34 -1.66 8.68 -2 8 C-1.67 7.01 -1.34 6.02 -1 5 C-1.66 4.67 -2.32 4.34 -3 4 C-3.33 4.66 -3.66 5.32 -4 6 C-4 5.01 -4 4.02 -4 3 C-3.01 3 -2.02 3 -1 3 C-0.67 2.01 -0.34 1.02 0 0 Z " fill="#916F2B" transform="translate(105,45)"/>
<path d="M0 0 C1.32 0 2.64 0 4 0 C4 2.64 4 5.28 4 8 C2.35 8.33 0.7 8.66 -1 9 C-0.01 8.34 0.98 7.68 2 7 C1.01 6.34 0.02 5.68 -1 5 C-0.67 3.35 -0.34 1.7 0 0 Z " fill="#B5BFC4" transform="translate(82,90)"/>
<path d="M0 0 C0.99 1.485 0.99 1.485 2 3 C2.99 3 3.98 3 5 3 C6.125 6.75 6.125 6.75 5 9 C3.35 9 1.7 9 0 9 C0 6.03 0 3.06 0 0 Z " fill="#B5B5B6" transform="translate(74,102)"/>
<path d="M0 0 C2.125 1.875 2.125 1.875 4 4 C4 4.66 4 5.32 4 6 C0.71023192 7.09658936 -0.71303767 6.79953138 -4 6 C-4 4.35 -4 2.7 -4 1 C-2 0 -2 0 0 0 Z " fill="#816024" transform="translate(82,49)"/>
<path d="M0 0 C1.65 0 3.3 0 5 0 C5 1.98 5 3.96 5 6 C3.68 6 2.36 6 1 6 C0.67 6.99 0.34 7.98 0 9 C0 6.03 0 3.06 0 0 Z " fill="#B4B7BA" transform="translate(125,120)"/>
<path d="M0 0 C1.65 0 3.3 0 5 0 C5 1.98 5 3.96 5 6 C3.68 6 2.36 6 1 6 C0.67 6.99 0.34 7.98 0 9 C0 6.03 0 3.06 0 0 Z " fill="#B3B9B8" transform="translate(110,105)"/>
<path d="M0 0 C1.65 0.33 3.3 0.66 5 1 C4.67 2.65 4.34 4.3 4 6 C2.35 5.67 0.7 5.34 -1 5 C-0.67 3.35 -0.34 1.7 0 0 Z " fill="#A4A8AB" transform="translate(127,90)"/>
<path d="M0 0 C2.97851562 0.43945312 2.97851562 0.43945312 5.95703125 0.87890625 C8.2025342 1.13904799 8.2025342 1.13904799 11 0 C11 1.98 11 3.96 11 6 C10.34 5.67 9.68 5.34 9 5 C9.33 4.34 9.66 3.68 10 3 C8.35 3 6.7 3 5 3 C5 3.99 5 4.98 5 6 C3.68 5.67 2.36 5.34 1 5 C1.66 5 2.32 5 3 5 C3 4.34 3 3.68 3 3 C2.34 2.67 1.68 2.34 1 2 C0.67 1.34 0.34 0.68 0 0 Z " fill="#A3A9AA" transform="translate(94,90)"/>
<path d="M0 0 C2.97 0 5.94 0 9 0 C9 1.98 9 3.96 9 6 C8.67 4.68 8.34 3.36 8 2 C7.34 2 6.68 2 6 2 C6 3.32 6 4.64 6 6 C5.34 6 4.68 6 4 6 C4 4.35 4 2.7 4 1 C1.48916886 2.25541557 1.12874554 3.50063488 0 6 C0 4.02 0 2.04 0 0 Z " fill="#C9CDD1" transform="translate(115,90)"/>
<path d="M0 0 C0.66 0.33 1.32 0.66 2 1 C2 3.31 2 5.62 2 8 C0.02 7.34 -1.96 6.68 -4 6 C-4 5.01 -4 4.02 -4 3 C-2.68 2.67 -1.36 2.34 0 2 C0 1.34 0 0.68 0 0 Z " fill="#4D5254" transform="translate(86,98)"/>
<path d="M0 0 C2.375 0.25 2.375 0.25 5 1 C6.3125 3.0625 6.3125 3.0625 7 5 C4.69 5.33 2.38 5.66 0 6 C0 4 0 2 0 0 Z " fill="#939B9D" transform="translate(75,120)"/>
<path d="M0 0 C0.33 0.66 0.66 1.32 1 2 C1.66 2.33 2.32 2.66 3 3 C2.34 3 1.68 3 1 3 C1 4.32 1 5.64 1 7 C1.66 7.33 2.32 7.66 3 8 C2.01 8 1.02 8 0 8 C0 6.35 0 4.7 0 3 C-0.99 3.33 -1.98 3.66 -3 4 C-2.34 4.33 -1.68 4.66 -1 5 C-1.33 5.99 -1.66 6.98 -2 8 C-2.99 7.67 -3.98 7.34 -5 7 C-5 5.33333333 -5 3.66666667 -5 2 C-3.35 2 -1.7 2 0 2 C0 1.34 0 0.68 0 0 Z " fill="#D5DBDE" transform="translate(118,118)"/>
<path d="M0 0 C0.66 0 1.32 0 2 0 C2.33 2.64 2.66 5.28 3 8 C2.34 8 1.68 8 1 8 C0.67 8.66 0.34 9.32 0 10 C0.66 10 1.32 10 2 10 C2 10.99 2 11.98 2 13 C1.34 13 0.68 13 0 13 C-2.04130598 8.91738804 -1.01097258 4.29663347 0 0 Z " fill="#444947" transform="translate(91,59)"/>
<path d="M0 0 C0.66 0 1.32 0 2 0 C2 0.99 2 1.98 2 3 C2.66 3 3.32 3 4 3 C4 2.01 4 1.02 4 0 C4.66 0 5.32 0 6 0 C5.01 2.97 4.02 5.94 3 9 C2.01 8.67 1.02 8.34 0 8 C0.2784375 7.13375 0.2784375 7.13375 0.5625 6.25 C1.04023546 3.79307475 0.75729364 2.35602466 0 0 Z " fill="#B2B8BD" transform="translate(74,90)"/>
<path d="M0 0 C1.37562854 1.28965176 2.70766393 2.62689293 4 4 C4 4.66 4 5.32 4 6 C3.34 6 2.68 6 2 6 C2 5.01 2 4.02 2 3 C1.34 3 0.68 3 0 3 C0.66 4.65 1.32 6.3 2 8 C1.01 8 0.02 8 -1 8 C-1.66 6.68 -2.32 5.36 -3 4 C-2.01 2.68 -1.02 1.36 0 0 Z " fill="#565B60" transform="translate(74,87)"/>
<path d="M0 0 C3.85645121 -0.22036864 6.49223216 0.39644899 10 2 C8.68 2.33 7.36 2.66 6 3 C6 3.99 6 4.98 6 6 C5.34 6 4.68 6 4 6 C4 4.35 4 2.7 4 1 C1.48916886 2.25541557 1.12874554 3.50063488 0 6 C0 4.02 0 2.04 0 0 Z " fill="#C6CBCE" transform="translate(91,120)"/>
<path d="M0 0 C0.66 0 1.32 0 2 0 C2.66 1.32 3.32 2.64 4 4 C4.33 2.68 4.66 1.36 5 0 C5.66 0 6.32 0 7 0 C6.01 2.97 5.02 5.94 4 9 C2 8 2 8 1.3671875 6.15234375 C1.20476562 5.42144531 1.04234375 4.69054687 0.875 3.9375 C0.70742187 3.20402344 0.53984375 2.47054687 0.3671875 1.71484375 C0.24601562 1.14894531 0.12484375 0.58304687 0 0 Z " fill="#C1C3C1" transform="translate(87,87)"/>
<path d="M0 0 C0.33 1.98 0.66 3.96 1 6 C-0.65 5.67 -2.3 5.34 -4 5 C-4.33 3.68 -4.66 2.36 -5 1 C-3 0 -3 0 0 0 Z " fill="#606265" transform="translate(99,67)"/>
<path d="M0 0 C0.99 0.33 1.98 0.66 3 1 C2.34 1 1.68 1 1 1 C0.67 2.32 0.34 3.64 0 5 C1.98 5 3.96 5 6 5 C5.01 6.485 5.01 6.485 4 8 C1.375 8.1875 1.375 8.1875 -1 8 C-1.04241723 5.66705225 -1.04092937 3.33297433 -1 1 C-0.67 0.67 -0.34 0.34 0 0 Z " fill="#9F8B56" transform="translate(86,37)"/>
<path d="M0 0 C0.66 0 1.32 0 2 0 C2.33 2.64 2.66 5.28 3 8 C2.01 8.33 1.02 8.66 0 9 C-0.87890625 2.84765625 -0.87890625 2.84765625 -1 1 C-0.67 0.67 -0.34 0.34 0 0 Z " fill="#595F69" transform="translate(93,121)"/>
<path d="M0 0 C1.125 6.75 1.125 6.75 0 9 C-0.66 9 -1.32 9 -2 9 C-2 6.69 -2 4.38 -2 2 C-2.66 1.67 -3.32 1.34 -4 1 C-2 0 -2 0 0 0 Z " fill="#99A199" transform="translate(66,87)"/>
<path d="M0 0 C2.64 0 5.28 0 8 0 C7.67 0.99 7.34 1.98 7 3 C4.69 3 2.38 3 0 3 C0 2.01 0 1.02 0 0 Z " fill="#81A3A4" transform="translate(88,47)"/>
<path d="M0 0 C1.10868317 3.32604951 1.54177532 6.53058454 2 10 C1.01 9.67 0.02 9.34 -1 9 C-1 7.35 -1 5.7 -1 4 C-1.66 4 -2.32 4 -3 4 C-2.67 3.01 -2.34 2.02 -2 1 C-1.34 0.67 -0.68 0.34 0 0 Z " fill="#515A66" transform="translate(102,118)"/>
<path d="M0 0 C0.66 0.33 1.32 0.66 2 1 C3.27536232 6.44927536 3.27536232 6.44927536 2 9 C1.34 9 0.68 9 0 9 C-1.125 2.25 -1.125 2.25 0 0 Z " fill="#636866" transform="translate(86,87)"/>
<path d="M0 0 C0.33 0.66 0.66 1.32 1 2 C1.66 2.33 2.32 2.66 3 3 C2.34 3 1.68 3 1 3 C1 4.32 1 5.64 1 7 C1.66 7.33 2.32 7.66 3 8 C2.01 8 1.02 8 0 8 C0 7.01 0 6.02 0 5 C-1.65 5 -3.3 5 -5 5 C-3.68 4.67 -2.36 4.34 -1 4 C-0.67 2.68 -0.34 1.36 0 0 Z " fill="#C8CFD3" transform="translate(93,103)"/>
<path d="M0 0 C2.31 0.33 4.62 0.66 7 1 C7 1.99 7 2.98 7 4 C7.66 4.33 8.32 4.66 9 5 C7.68 5 6.36 5 5 5 C5 4.34 5 3.68 5 3 C2.525 2.01 2.525 2.01 0 1 C0 0.67 0 0.34 0 0 Z " fill="#C6A143" transform="translate(83,51)"/>
<path d="M0 0 C0.33 1.32 0.66 2.64 1 4 C1.66 4 2.32 4 3 4 C3 4.66 3 5.32 3 6 C1.35 5.67 -0.3 5.34 -2 5 C-2 3.68 -2 2.36 -2 1 C-1.34 0.67 -0.68 0.34 0 0 Z " fill="#717777" transform="translate(121,120)"/>
<path d="M0 0 C0.99 0.99 1.98 1.98 3 3 C2.6875 6.1875 2.6875 6.1875 2 9 C1.34 9 0.68 9 0 9 C0 6.03 0 3.06 0 0 Z " fill="#68655F" transform="translate(86,105)"/>
<path d="M0 0 C1.65 0 3.3 0 5 0 C5 1.32 5 2.64 5 4 C3.68 4 2.36 4 1 4 C0.67 2.68 0.34 1.36 0 0 Z " fill="#A34E3F" transform="translate(91,38)"/>
<path d="M0 0 C0 0.66 0 1.32 0 2 C1.32 2 2.64 2 4 2 C4.33 1.34 4.66 0.68 5 0 C4.67 1.32 4.34 2.64 4 4 C1.6568787 3.74438677 -0.67843403 3.40729228 -3 3 C-3.33 2.34 -3.66 1.68 -4 1 C-2 0 -2 0 0 0 Z " fill="#747983" transform="translate(105,105)"/>
<path d="M0 0 C0.33 0.99 0.66 1.98 1 3 C0.01 3 -0.98 3 -2 3 C-2 3.99 -2 4.98 -2 6 C-2.99 5.67 -3.98 5.34 -5 5 C-5 4.01 -5 3.02 -5 2 C-3.35 1.34 -1.7 0.68 0 0 Z " fill="#4B7B93" transform="translate(90,44)"/>
</svg>
